<?xml version="1.0" encoding="utf-8"?>
<!-- Generator: Adobe Illustrator 16.0.0, SVG Export Plug-In . SVG Version: 6.00 Build 0)  -->
<!DOCTYPE svg PUBLIC "-//W3C//DTD SVG 1.1//EN" "http://www.w3.org/Graphics/SVG/1.1/DTD/svg11.dtd">
<svg version="1.1" id="Layer_1" xmlns="http://www.w3.org/2000/svg" xmlns:xlink="http://www.w3.org/1999/xlink" x="0px" y="0px"
	 width="110.5px" height="112.5px" viewBox="0 0 110.5 112.5" enable-background="new 0 0 110.5 112.5" xml:space="preserve">
<path fill="#E87518" d="M81.388,31.372c0,3.834-0.633,7.368-1.897,10.605s-3.095,6.018-5.493,8.343
	c-2.396,2.325-5.259,4.108-8.588,5.349c-3.328,1.242-7.073,1.863-11.235,1.863c-4.126,0-7.837-0.629-11.132-1.885
	c-3.295-1.257-6.151-3.056-8.565-5.397c-2.414-2.341-4.244-5.105-5.493-8.295c-1.247-3.189-1.872-6.717-1.872-10.582
	c0-3.896,0.632-7.463,1.897-10.699c1.264-3.237,3.079-6.002,5.444-8.295c2.362-2.294,5.226-4.062,8.588-5.302
	c3.361-1.242,7.071-1.862,11.132-1.862c4.128,0,7.873,0.629,11.235,1.886c3.362,1.256,6.242,3.048,8.639,5.373
	s4.219,5.09,5.469,8.295C80.763,23.972,81.388,27.507,81.388,31.372z"/>
<path fill="#E87518" d="M45.5,54c-1.416,7.75-8.062,13.675-13.474,16.611C5.5,85,11.25,97.625,12.513,106.853
	C34.5,110,87.5,109.495,101.858,106C107.5,83.167,89.25,74.375,79.732,69.354c-3.788-1.998-13.023-6.224-13.397-14.188
	C61.221,53.984,49.557,46.024,45,43.5"/>
<path fill="#FFFFFF" d="M65.513,41.739c0,1.6-0.265,3.075-0.792,4.426c-0.527,1.351-1.291,2.511-2.293,3.482
	c-1,0.97-2.193,1.714-3.583,2.232c-1.389,0.519-2.952,0.777-4.689,0.777c-1.722,0-3.271-0.263-4.646-0.787
	c-1.375-0.525-2.567-1.275-3.574-2.252s-1.771-2.131-2.292-3.462c-0.521-1.331-0.781-2.803-0.781-4.416
	C42.862,40.113,65.513,40.126,65.513,41.739z"/>
<path fill="none" stroke="#E87518" stroke-miterlimit="10" d="M11.622,28.484"/>
<path fill="none" stroke="#E87518" stroke-miterlimit="10" d="M60.897,28.484"/>
</svg>
