<?xml version="1.0" encoding="utf-8"?>
<!-- Generator: Adobe Illustrator 16.0.0, SVG Export Plug-In . SVG Version: 6.00 Build 0)  -->
<!DOCTYPE svg PUBLIC "-//W3C//DTD SVG 1.1//EN" "http://www.w3.org/Graphics/SVG/1.1/DTD/svg11.dtd">
<svg version="1.1" id="Layer_1" xmlns="http://www.w3.org/2000/svg" xmlns:xlink="http://www.w3.org/1999/xlink" x="0px" y="0px"
	 width="202.632px" height="128.982px" viewBox="0 0 202.632 128.982" enable-background="new 0 0 202.632 128.982"
	 xml:space="preserve">
<g>
	<path fill="#18C1E8" d="M28.173,70.142l-5.648-9.281l-3.469,3.281v5.086c0,1.234-0.324,2.184-0.973,2.848s-1.395,0.996-2.238,0.996
		c-0.984,0-1.758-0.328-2.32-0.984s-0.844-1.625-0.844-2.906V41.899c0-1.422,0.273-2.504,0.82-3.246s1.328-1.113,2.344-1.113
		c0.984,0,1.766,0.336,2.344,1.008s0.867,1.664,0.867,2.977V57.04l7.195-7.547c0.891-0.938,1.57-1.578,2.039-1.922
		s1.039-0.516,1.711-0.516c0.797,0,1.461,0.254,1.992,0.762s0.797,1.145,0.797,1.91c0,0.938-0.867,2.188-2.602,3.75l-3.398,3.117
		l6.562,10.312c0.484,0.766,0.832,1.348,1.043,1.746s0.316,0.777,0.316,1.137c0,1.016-0.277,1.816-0.832,2.402
		s-1.285,0.879-2.191,0.879c-0.781,0-1.383-0.211-1.805-0.633S28.892,71.251,28.173,70.142z"/>
	<path fill="#18C1E8" d="M54.095,69.462c-1.547,1.203-3.043,2.105-4.488,2.707s-3.066,0.902-4.863,0.902
		c-1.641,0-3.082-0.324-4.324-0.973s-2.199-1.527-2.871-2.637s-1.008-2.312-1.008-3.609c0-1.75,0.555-3.242,1.664-4.477
		s2.633-2.062,4.57-2.484c0.406-0.094,1.414-0.305,3.023-0.633s2.988-0.629,4.137-0.902s2.395-0.605,3.738-0.996
		c-0.078-1.688-0.418-2.926-1.02-3.715s-1.848-1.184-3.738-1.184c-1.625,0-2.848,0.227-3.668,0.68s-1.523,1.133-2.109,2.039
		s-1,1.504-1.242,1.793s-0.762,0.434-1.559,0.434c-0.719,0-1.34-0.23-1.863-0.691s-0.785-1.051-0.785-1.77
		c0-1.125,0.398-2.219,1.195-3.281s2.039-1.938,3.727-2.625s3.789-1.031,6.305-1.031c2.812,0,5.023,0.332,6.633,0.996
		s2.746,1.715,3.41,3.152s0.996,3.344,0.996,5.719c0,1.5-0.004,2.773-0.012,3.82s-0.02,2.211-0.035,3.492
		c0,1.203,0.199,2.457,0.598,3.762s0.598,2.145,0.598,2.52c0,0.656-0.309,1.254-0.926,1.793s-1.316,0.809-2.098,0.809
		c-0.656,0-1.305-0.309-1.945-0.926S54.813,70.634,54.095,69.462z M53.673,60.204c-0.938,0.344-2.301,0.707-4.09,1.09
		s-3.027,0.664-3.715,0.844s-1.344,0.531-1.969,1.055s-0.938,1.254-0.938,2.191c0,0.969,0.367,1.793,1.102,2.473
		s1.695,1.02,2.883,1.02c1.266,0,2.434-0.277,3.504-0.832s1.855-1.27,2.355-2.145c0.578-0.969,0.867-2.562,0.867-4.781V60.204z"/>
	<path fill="#18C1E8" d="M72.798,63.837v5.344c0,1.297-0.305,2.27-0.914,2.918s-1.383,0.973-2.32,0.973
		c-0.922,0-1.68-0.328-2.273-0.984s-0.891-1.625-0.891-2.906V51.368c0-2.875,1.039-4.312,3.117-4.312
		c1.062,0,1.828,0.336,2.297,1.008s0.727,1.664,0.773,2.977c0.766-1.312,1.551-2.305,2.355-2.977s1.879-1.008,3.223-1.008
		s2.648,0.336,3.914,1.008s1.898,1.562,1.898,2.672c0,0.781-0.27,1.426-0.809,1.934s-1.121,0.762-1.746,0.762
		c-0.234,0-0.801-0.145-1.699-0.434s-1.691-0.434-2.379-0.434c-0.938,0-1.703,0.246-2.297,0.738s-1.055,1.223-1.383,2.191
		s-0.555,2.121-0.68,3.457S72.798,61.915,72.798,63.837z"/>
	<path fill="#18C1E8" d="M102.446,69.462c-1.547,1.203-3.043,2.105-4.488,2.707s-3.066,0.902-4.863,0.902
		c-1.641,0-3.082-0.324-4.324-0.973s-2.199-1.527-2.871-2.637s-1.008-2.312-1.008-3.609c0-1.75,0.555-3.242,1.664-4.477
		s2.633-2.062,4.57-2.484c0.406-0.094,1.414-0.305,3.023-0.633s2.988-0.629,4.137-0.902s2.395-0.605,3.738-0.996
		c-0.078-1.688-0.418-2.926-1.02-3.715s-1.848-1.184-3.738-1.184c-1.625,0-2.848,0.227-3.668,0.68s-1.523,1.133-2.109,2.039
		s-1,1.504-1.242,1.793s-0.762,0.434-1.559,0.434c-0.719,0-1.34-0.23-1.863-0.691s-0.785-1.051-0.785-1.77
		c0-1.125,0.398-2.219,1.195-3.281s2.039-1.938,3.727-2.625s3.789-1.031,6.305-1.031c2.812,0,5.023,0.332,6.633,0.996
		s2.746,1.715,3.41,3.152s0.996,3.344,0.996,5.719c0,1.5-0.004,2.773-0.012,3.82s-0.02,2.211-0.035,3.492
		c0,1.203,0.199,2.457,0.598,3.762s0.598,2.145,0.598,2.52c0,0.656-0.309,1.254-0.926,1.793s-1.316,0.809-2.098,0.809
		c-0.656,0-1.305-0.309-1.945-0.926S103.165,70.634,102.446,69.462z M102.024,60.204c-0.938,0.344-2.301,0.707-4.09,1.09
		s-3.027,0.664-3.715,0.844s-1.344,0.531-1.969,1.055s-0.938,1.254-0.938,2.191c0,0.969,0.367,1.793,1.102,2.473
		s1.695,1.02,2.883,1.02c1.266,0,2.434-0.277,3.504-0.832s1.855-1.27,2.355-2.145c0.578-0.969,0.867-2.562,0.867-4.781V60.204z"/>
	<path fill="#E87518" d="M140.264,60.063c0,1.906-0.314,3.664-0.943,5.273s-1.539,2.992-2.731,4.148
		c-1.191,1.156-2.615,2.043-4.271,2.66s-3.518,0.926-5.587,0.926c-2.052,0-3.897-0.312-5.536-0.938s-3.059-1.52-4.259-2.684
		s-2.11-2.539-2.731-4.125c-0.62-1.586-0.931-3.34-0.931-5.262c0-1.938,0.314-3.711,0.943-5.32s1.531-2.984,2.707-4.125
		c1.175-1.141,2.599-2.02,4.271-2.637s3.517-0.926,5.536-0.926c2.053,0,3.915,0.312,5.587,0.938s3.104,1.516,4.296,2.672
		c1.191,1.156,2.098,2.531,2.719,4.125C139.953,56.384,140.264,58.142,140.264,60.063z"/>
	<path fill="#18C1E8" d="M160.728,70.142l-5.648-9.281l-3.469,3.281v5.086c0,1.234-0.324,2.184-0.973,2.848
		s-1.395,0.996-2.238,0.996c-0.984,0-1.758-0.328-2.32-0.984s-0.844-1.625-0.844-2.906V41.899c0-1.422,0.273-2.504,0.82-3.246
		s1.328-1.113,2.344-1.113c0.984,0,1.766,0.336,2.344,1.008s0.867,1.664,0.867,2.977V57.04l7.195-7.547
		c0.891-0.938,1.57-1.578,2.039-1.922s1.039-0.516,1.711-0.516c0.797,0,1.461,0.254,1.992,0.762s0.797,1.145,0.797,1.91
		c0,0.938-0.867,2.188-2.602,3.75l-3.398,3.117l6.562,10.312c0.484,0.766,0.832,1.348,1.043,1.746s0.316,0.777,0.316,1.137
		c0,1.016-0.277,1.816-0.832,2.402s-1.285,0.879-2.191,0.879c-0.781,0-1.383-0.211-1.805-0.633S161.446,71.251,160.728,70.142z"/>
	<path fill="#18C1E8" d="M188.337,61.634h-12.516c0.016,1.453,0.309,2.734,0.879,3.844s1.328,1.945,2.273,2.508
		s1.988,0.844,3.129,0.844c0.766,0,1.465-0.09,2.098-0.27s1.246-0.461,1.84-0.844s1.141-0.793,1.641-1.23s1.148-1.031,1.945-1.781
		c0.328-0.281,0.797-0.422,1.406-0.422c0.656,0,1.188,0.18,1.594,0.539s0.609,0.867,0.609,1.523c0,0.578-0.227,1.254-0.68,2.027
		s-1.137,1.516-2.051,2.227s-2.062,1.301-3.445,1.77s-2.973,0.703-4.77,0.703c-4.109,0-7.305-1.172-9.586-3.516
		s-3.422-5.523-3.422-9.539c0-1.891,0.281-3.645,0.844-5.262s1.383-3.004,2.461-4.16s2.406-2.043,3.984-2.66s3.328-0.926,5.25-0.926
		c2.5,0,4.645,0.527,6.434,1.582s3.129,2.418,4.02,4.09s1.336,3.375,1.336,5.109c0,1.609-0.461,2.652-1.383,3.129
		S190.009,61.634,188.337,61.634z M175.821,58.001h11.602c-0.156-2.188-0.746-3.824-1.77-4.91s-2.371-1.629-4.043-1.629
		c-1.594,0-2.902,0.551-3.926,1.652S176.04,55.845,175.821,58.001z"/>
</g>
<g>
	<path fill="#18C1E8" d="M22.392,106.521v5.344c0,1.297-0.305,2.27-0.914,2.918s-1.383,0.973-2.32,0.973
		c-0.922,0-1.68-0.328-2.273-0.984s-0.891-1.625-0.891-2.906V94.052c0-2.875,1.039-4.312,3.117-4.312
		c1.062,0,1.828,0.336,2.297,1.008s0.727,1.664,0.773,2.977c0.766-1.312,1.551-2.305,2.355-2.977s1.879-1.008,3.223-1.008
		s2.648,0.336,3.914,1.008s1.898,1.562,1.898,2.672c0,0.781-0.27,1.426-0.809,1.934s-1.121,0.762-1.746,0.762
		c-0.234,0-0.801-0.145-1.699-0.434s-1.691-0.434-2.379-0.434c-0.938,0-1.703,0.246-2.297,0.738s-1.055,1.223-1.383,2.191
		s-0.555,2.121-0.68,3.457S22.392,104.599,22.392,106.521z"/>
	<path fill="#18C1E8" d="M81.845,112.146v-0.82c-0.766,0.969-1.57,1.781-2.414,2.438s-1.766,1.145-2.766,1.465
		s-2.141,0.48-3.422,0.48c-1.547,0-2.934-0.32-4.16-0.961s-2.176-1.523-2.848-2.648c-0.797-1.359-1.195-3.312-1.195-5.859V93.56
		c0-1.281,0.289-2.238,0.867-2.871s1.344-0.949,2.297-0.949c0.969,0,1.75,0.32,2.344,0.961s0.891,1.594,0.891,2.859v10.242
		c0,1.484,0.125,2.73,0.375,3.738s0.699,1.797,1.348,2.367s1.527,0.855,2.637,0.855c1.078,0,2.094-0.32,3.047-0.961
		s1.648-1.477,2.086-2.508c0.359-0.906,0.539-2.891,0.539-5.953V93.56c0-1.266,0.297-2.219,0.891-2.859s1.367-0.961,2.32-0.961
		s1.719,0.316,2.297,0.949s0.867,1.59,0.867,2.871v18.539c0,1.219-0.277,2.133-0.832,2.742s-1.27,0.914-2.145,0.914
		s-1.598-0.316-2.168-0.949S81.845,113.286,81.845,112.146z"/>
	<path fill="#18C1E8" d="M94.22,111.864v-27.75c0-1.281,0.285-2.25,0.855-2.906s1.34-0.984,2.309-0.984s1.75,0.324,2.344,0.973
		s0.891,1.621,0.891,2.918v27.75c0,1.297-0.301,2.27-0.902,2.918s-1.379,0.973-2.332,0.973c-0.938,0-1.699-0.336-2.285-1.008
		S94.22,113.114,94.22,111.864z"/>
	<path fill="#18C1E8" d="M125.087,104.317h-12.516c0.016,1.453,0.309,2.734,0.879,3.844s1.328,1.945,2.273,2.508
		s1.988,0.844,3.129,0.844c0.766,0,1.465-0.09,2.098-0.27s1.246-0.461,1.84-0.844s1.141-0.793,1.641-1.23s1.148-1.031,1.945-1.781
		c0.328-0.281,0.797-0.422,1.406-0.422c0.656,0,1.188,0.18,1.594,0.539s0.609,0.867,0.609,1.523c0,0.578-0.227,1.254-0.68,2.027
		s-1.137,1.516-2.051,2.227s-2.062,1.301-3.445,1.77s-2.973,0.703-4.77,0.703c-4.109,0-7.305-1.172-9.586-3.516
		s-3.422-5.523-3.422-9.539c0-1.891,0.281-3.645,0.844-5.262s1.383-3.004,2.461-4.16s2.406-2.043,3.984-2.66s3.328-0.926,5.25-0.926
		c2.5,0,4.645,0.527,6.434,1.582s3.129,2.418,4.02,4.09s1.336,3.375,1.336,5.109c0,1.609-0.461,2.652-1.383,3.129
		S126.759,104.317,125.087,104.317z M112.571,100.685h11.602c-0.156-2.188-0.746-3.824-1.77-4.91s-2.371-1.629-4.043-1.629
		c-1.594,0-2.902,0.551-3.926,1.652S112.79,98.528,112.571,100.685z"/>
	<path fill="#18C1E8" d="M136.103,90.302h0.703v-3.844c0-1.031,0.027-1.84,0.082-2.426s0.207-1.09,0.457-1.512
		c0.25-0.438,0.609-0.793,1.078-1.066s0.992-0.41,1.57-0.41c0.812,0,1.547,0.305,2.203,0.914c0.438,0.406,0.715,0.902,0.832,1.488
		s0.176,1.418,0.176,2.496v4.359h2.344c0.906,0,1.598,0.215,2.074,0.645s0.715,0.98,0.715,1.652c0,0.859-0.34,1.461-1.02,1.805
		s-1.652,0.516-2.918,0.516h-1.195v11.766c0,1,0.035,1.77,0.105,2.309s0.258,0.977,0.562,1.312s0.801,0.504,1.488,0.504
		c0.375,0,0.883-0.066,1.523-0.199s1.141-0.199,1.5-0.199c0.516,0,0.98,0.207,1.395,0.621s0.621,0.926,0.621,1.535
		c0,1.031-0.562,1.82-1.688,2.367s-2.742,0.82-4.852,0.82c-2,0-3.516-0.336-4.547-1.008s-1.707-1.602-2.027-2.789
		s-0.48-2.773-0.48-4.758V94.919h-0.844c-0.922,0-1.625-0.219-2.109-0.656s-0.727-0.992-0.727-1.664s0.254-1.223,0.762-1.652
		S135.134,90.302,136.103,90.302z"/>
	<path fill="#18C1E8" d="M153.095,90.302h0.703v-3.844c0-1.031,0.027-1.84,0.082-2.426s0.207-1.09,0.457-1.512
		c0.25-0.438,0.609-0.793,1.078-1.066s0.992-0.41,1.57-0.41c0.812,0,1.547,0.305,2.203,0.914c0.438,0.406,0.715,0.902,0.832,1.488
		s0.176,1.418,0.176,2.496v4.359h2.344c0.906,0,1.598,0.215,2.074,0.645s0.715,0.98,0.715,1.652c0,0.859-0.34,1.461-1.02,1.805
		s-1.652,0.516-2.918,0.516h-1.195v11.766c0,1,0.035,1.77,0.105,2.309s0.258,0.977,0.562,1.312s0.801,0.504,1.488,0.504
		c0.375,0,0.883-0.066,1.523-0.199s1.141-0.199,1.5-0.199c0.516,0,0.98,0.207,1.395,0.621s0.621,0.926,0.621,1.535
		c0,1.031-0.562,1.82-1.688,2.367s-2.742,0.82-4.852,0.82c-2,0-3.516-0.336-4.547-1.008s-1.707-1.602-2.027-2.789
		s-0.48-2.773-0.48-4.758V94.919h-0.844c-0.922,0-1.625-0.219-2.109-0.656s-0.727-0.992-0.727-1.664s0.254-1.223,0.762-1.652
		S152.126,90.302,153.095,90.302z"/>
	<path fill="#18C1E8" d="M187.595,104.317h-12.516c0.016,1.453,0.309,2.734,0.879,3.844s1.328,1.945,2.273,2.508
		s1.988,0.844,3.129,0.844c0.766,0,1.465-0.09,2.098-0.27s1.246-0.461,1.84-0.844s1.141-0.793,1.641-1.23s1.148-1.031,1.945-1.781
		c0.328-0.281,0.797-0.422,1.406-0.422c0.656,0,1.188,0.18,1.594,0.539s0.609,0.867,0.609,1.523c0,0.578-0.227,1.254-0.68,2.027
		s-1.137,1.516-2.051,2.227s-2.062,1.301-3.445,1.77s-2.973,0.703-4.77,0.703c-4.109,0-7.305-1.172-9.586-3.516
		s-3.422-5.523-3.422-9.539c0-1.891,0.281-3.645,0.844-5.262s1.383-3.004,2.461-4.16s2.406-2.043,3.984-2.66s3.328-0.926,5.25-0.926
		c2.5,0,4.645,0.527,6.434,1.582s3.129,2.418,4.02,4.09s1.336,3.375,1.336,5.109c0,1.609-0.461,2.652-1.383,3.129
		S189.267,104.317,187.595,104.317z M175.079,100.685h11.602c-0.156-2.188-0.746-3.824-1.77-4.91s-2.371-1.629-4.043-1.629
		c-1.594,0-2.902,0.551-3.926,1.652S175.298,98.528,175.079,100.685z"/>
</g>
<path fill="#E87518" d="M61.701,102.724c0,1.906-0.314,3.664-0.943,5.273s-1.539,2.992-2.731,4.148
	c-1.191,1.156-2.615,2.043-4.271,2.66s-3.518,0.926-5.587,0.926c-2.052,0-3.897-0.312-5.536-0.938s-3.059-1.52-4.259-2.684
	s-2.11-2.539-2.731-4.125c-0.62-1.586-0.931-3.34-0.931-5.262c0-1.938,0.314-3.711,0.943-5.32s1.531-2.984,2.707-4.125
	c1.175-1.141,2.599-2.02,4.271-2.637s3.517-0.926,5.536-0.926c2.053,0,3.915,0.312,5.587,0.938s3.104,1.516,4.296,2.672
	c1.191,1.156,2.098,2.531,2.719,4.125C61.391,99.044,61.701,100.802,61.701,102.724z"/>
<g>
	<path fill="#18C1E8" d="M33.474,46.834c0,0,0.498-0.353,1.432-1.016c0.932-0.659,2.303-1.646,4.134-2.776
		c1.829-1.118,4.062-2.468,6.692-3.907c2.615-1.468,5.633-3.016,9.019-4.5c3.372-1.518,7.087-3.043,11.103-4.416
		c4.007-1.397,8.285-2.747,12.787-3.849c4.498-1.105,9.174-2.192,13.99-2.917c4.81-0.767,9.726-1.354,14.66-1.75
		c4.939-0.33,9.893-0.46,14.769-0.396c4.878,0.026,9.673,0.454,14.295,0.949c4.626,0.506,9.066,1.314,13.234,2.291
		c2.084,0.481,4.103,1.011,6.032,1.606c1.928,0.605,3.772,1.261,5.524,1.94c1.743,0.71,3.412,1.398,4.938,2.208
		c1.523,0.815,2.946,1.626,4.223,2.507c2.56,1.733,4.599,3.596,5.917,5.44c1.38,1.809,1.847,3.623,1.992,4.792
		c0.025,0.297,0.048,0.559,0.067,0.785c-0.008,0.227-0.015,0.417-0.02,0.57c-0.013,0.303-0.019,0.459-0.019,0.459h-0.4
		c0,0-0.01-0.147-0.028-0.434c-0.01-0.144-0.021-0.32-0.036-0.531c-0.04-0.208-0.086-0.449-0.138-0.722
		c-0.239-1.076-0.857-2.642-2.241-4.226c-1.343-1.608-3.386-3.21-5.938-4.663c-2.556-1.459-5.631-2.762-9.076-3.903
		c-6.903-2.269-15.295-3.825-24.348-4.623c-9.057-0.785-18.787-0.812-28.456-0.064c-9.675,0.675-19.291,2.132-28.166,4.113
		c-8.88,1.975-17.006,4.505-23.808,7.087c-3.401,1.291-6.484,2.567-9.174,3.795c-2.699,1.206-5.006,2.358-6.9,3.315
		c-1.879,0.984-3.352,1.764-4.341,2.331c-0.995,0.555-1.525,0.852-1.525,0.852L33.474,46.834z"/>
</g>
</svg>
