<?xml version="1.0" encoding="utf-8"?>
<!-- Generator: Adobe Illustrator 16.0.0, SVG Export Plug-In . SVG Version: 6.00 Build 0)  -->
<!DOCTYPE svg PUBLIC "-//W3C//DTD SVG 1.1//EN" "http://www.w3.org/Graphics/SVG/1.1/DTD/svg11.dtd">
<svg version="1.1" id="Layer_1" xmlns="http://www.w3.org/2000/svg" xmlns:xlink="http://www.w3.org/1999/xlink" x="0px" y="0px"
	 width="166.859px" height="37.754px" viewBox="0 0 166.859 37.754" enable-background="new 0 0 166.859 37.754"
	 xml:space="preserve">
<g>
	<g>
		<path fill="#FFFFFF" d="M13.708,25.621v4.587c0,1.114-0.262,1.949-0.786,2.506c-0.521,0.555-1.188,0.834-1.991,0.834
			c-0.791,0-1.441-0.281-1.952-0.846c-0.509-0.562-0.764-1.395-0.764-2.494V14.917c0-2.467,0.892-3.701,2.675-3.701
			c0.914,0,1.57,0.288,1.973,0.865c0.402,0.576,0.623,1.428,0.664,2.555c0.656-1.127,1.331-1.979,2.021-2.555
			c0.69-0.577,1.613-0.865,2.767-0.865s2.273,0.288,3.36,0.865c1.087,0.576,1.629,1.341,1.629,2.293c0,0.671-0.23,1.225-0.693,1.66
			s-0.962,0.654-1.499,0.654c-0.201,0-0.688-0.125-1.459-0.373c-0.771-0.248-1.452-0.372-2.043-0.372
			c-0.803,0-1.461,0.212-1.971,0.634c-0.51,0.423-0.905,1.05-1.187,1.881c-0.282,0.832-0.477,1.822-0.583,2.969
			C13.762,22.573,13.708,23.972,13.708,25.621z"/>
		<path fill="#FFFFFF" d="M64.745,30.448v-0.703c-0.658,0.832-1.35,1.529-2.072,2.094c-0.726,0.562-1.517,0.98-2.375,1.256
			c-0.859,0.275-1.838,0.413-2.938,0.413c-1.327,0-2.518-0.275-3.571-0.825c-1.053-0.55-1.868-1.308-2.445-2.273
			c-0.684-1.168-1.025-2.844-1.025-5.029V14.495c0-1.1,0.249-1.922,0.744-2.465c0.497-0.543,1.155-0.814,1.973-0.814
			c0.831,0,1.501,0.275,2.012,0.824c0.51,0.551,0.765,1.369,0.765,2.455v8.792c0,1.273,0.107,2.344,0.322,3.209
			c0.213,0.864,0.6,1.543,1.156,2.032c0.558,0.49,1.311,0.734,2.264,0.734c0.926,0,1.796-0.275,2.614-0.826
			c0.819-0.549,1.416-1.266,1.792-2.152c0.308-0.777,0.463-2.481,0.463-5.109v-6.68c0-1.086,0.254-1.904,0.765-2.455
			c0.509-0.549,1.174-0.824,1.992-0.824c0.817,0,1.475,0.271,1.97,0.814c0.497,0.543,0.746,1.365,0.746,2.465v15.914
			c0,1.046-0.238,1.831-0.715,2.354c-0.477,0.523-1.09,0.785-1.841,0.785s-1.372-0.271-1.861-0.814S64.745,31.429,64.745,30.448z"/>
		<path fill="#FFFFFF" d="M75.367,30.208V6.387c0-1.1,0.244-1.932,0.734-2.495s1.15-0.845,1.982-0.845
			c0.83,0,1.501,0.278,2.013,0.835c0.509,0.557,0.764,1.392,0.764,2.505v23.821c0,1.114-0.258,1.949-0.775,2.506
			c-0.516,0.555-1.183,0.834-2.001,0.834c-0.806,0-1.459-0.289-1.962-0.865C75.618,32.106,75.367,31.281,75.367,30.208z"/>
		<path fill="#FFFFFF" d="M101.864,23.729H91.121c0.013,1.248,0.265,2.348,0.755,3.299c0.488,0.953,1.141,1.67,1.951,2.154
			c0.812,0.482,1.707,0.725,2.686,0.725c0.658,0,1.258-0.078,1.801-0.232s1.07-0.396,1.58-0.725s0.978-0.68,1.408-1.055
			c0.43-0.377,0.986-0.887,1.669-1.53c0.283-0.241,0.686-0.361,1.208-0.361c0.564,0,1.02,0.153,1.367,0.462
			c0.35,0.309,0.523,0.744,0.523,1.308c0,0.497-0.195,1.076-0.582,1.741c-0.389,0.663-0.977,1.301-1.761,1.911
			c-0.785,0.61-1.771,1.116-2.958,1.519c-1.188,0.402-2.553,0.604-4.095,0.604c-3.527,0-6.271-1.006-8.229-3.018
			c-1.959-2.013-2.937-4.742-2.937-8.189c0-1.622,0.24-3.129,0.724-4.516c0.482-1.389,1.187-2.578,2.113-3.572
			c0.925-0.992,2.063-1.753,3.419-2.283c1.354-0.529,2.857-0.795,4.507-0.795c2.146,0,3.987,0.453,5.523,1.359
			c1.534,0.904,2.687,2.074,3.45,3.511c0.765,1.435,1.146,2.897,1.146,4.386c0,1.381-0.395,2.275-1.187,2.686
			C104.413,23.525,103.299,23.729,101.864,23.729z M91.121,20.611h9.958c-0.133-1.878-0.639-3.282-1.517-4.215
			c-0.88-0.933-2.037-1.397-3.472-1.397c-1.368,0-2.491,0.472-3.371,1.418C91.841,17.362,91.31,18.761,91.121,20.611z"/>
		<path fill="#FFFFFF" d="M111.321,11.698h0.603V8.399c0-0.886,0.023-1.579,0.071-2.083c0.046-0.503,0.178-0.936,0.393-1.298
			c0.215-0.375,0.522-0.68,0.926-0.915c0.402-0.234,0.852-0.352,1.347-0.352c0.698,0,1.328,0.261,1.894,0.785
			c0.373,0.349,0.613,0.774,0.714,1.278c0.1,0.503,0.149,1.217,0.149,2.142v3.742h2.012c0.778,0,1.372,0.186,1.782,0.554
			c0.408,0.368,0.612,0.842,0.612,1.419c0,0.737-0.291,1.254-0.874,1.549s-1.421,0.442-2.506,0.442h-1.026v10.099
			c0,0.859,0.03,1.52,0.091,1.982c0.06,0.463,0.222,0.838,0.483,1.127s0.686,0.433,1.278,0.433c0.321,0,0.756-0.057,1.307-0.171
			c0.55-0.113,0.979-0.172,1.287-0.172c0.442,0,0.843,0.178,1.197,0.535c0.355,0.354,0.534,0.793,0.534,1.316
			c0,0.885-0.484,1.562-1.449,2.032c-0.966,0.47-2.354,0.704-4.163,0.704c-1.719,0-3.019-0.289-3.904-0.865
			s-1.466-1.375-1.741-2.395c-0.274-1.02-0.413-2.38-0.413-4.084V15.662h-0.723c-0.793,0-1.396-0.188-1.811-0.563
			c-0.418-0.375-0.625-0.852-0.625-1.428c0-0.577,0.219-1.051,0.654-1.419S110.489,11.698,111.321,11.698z"/>
		<path fill="#FFFFFF" d="M125.908,11.698h0.604V8.399c0-0.886,0.023-1.579,0.07-2.083c0.047-0.503,0.179-0.936,0.393-1.298
			c0.214-0.375,0.522-0.68,0.925-0.915c0.403-0.234,0.853-0.352,1.348-0.352c0.698,0,1.328,0.261,1.893,0.785
			c0.375,0.349,0.614,0.774,0.714,1.278c0.1,0.503,0.149,1.217,0.149,2.142v3.742h2.013c0.778,0,1.372,0.186,1.781,0.554
			s0.613,0.842,0.613,1.419c0,0.737-0.291,1.254-0.875,1.549s-1.419,0.442-2.504,0.442h-1.028v10.099
			c0,0.859,0.031,1.52,0.091,1.982c0.062,0.463,0.224,0.838,0.484,1.127c0.262,0.289,0.687,0.433,1.276,0.433
			c0.322,0,0.759-0.057,1.309-0.171c0.55-0.113,0.979-0.172,1.287-0.172c0.443,0,0.842,0.178,1.197,0.535
			c0.355,0.354,0.533,0.793,0.533,1.316c0,0.885-0.482,1.562-1.448,2.032c-0.967,0.47-2.354,0.704-4.165,0.704
			c-1.717,0-3.018-0.289-3.903-0.865c-0.885-0.576-1.466-1.375-1.741-2.395c-0.273-1.02-0.411-2.38-0.411-4.084V15.662h-0.725
			c-0.792,0-1.395-0.188-1.811-0.563c-0.417-0.375-0.624-0.852-0.624-1.428c0-0.577,0.219-1.051,0.654-1.419
			S125.076,11.698,125.908,11.698z"/>
		<path fill="#FFFFFF" d="M155.524,23.729H144.78c0.014,1.248,0.265,2.348,0.755,3.299c0.489,0.953,1.14,1.67,1.951,2.154
			c0.812,0.482,1.706,0.725,2.687,0.725c0.656,0,1.257-0.078,1.801-0.232c0.543-0.154,1.069-0.396,1.578-0.725
			c0.512-0.328,0.98-0.68,1.409-1.055c0.429-0.377,0.985-0.887,1.67-1.53c0.281-0.241,0.684-0.361,1.207-0.361
			c0.563,0,1.021,0.153,1.368,0.462s0.522,0.744,0.522,1.308c0,0.497-0.194,1.076-0.582,1.741c-0.391,0.663-0.977,1.301-1.762,1.911
			s-1.77,1.116-2.957,1.519c-1.187,0.402-2.552,0.604-4.095,0.604c-3.528,0-6.271-1.006-8.228-3.018
			c-1.958-2.013-2.939-4.742-2.939-8.189c0-1.622,0.242-3.129,0.726-4.516c0.482-1.389,1.186-2.578,2.111-3.572
			c0.926-0.992,2.066-1.753,3.422-2.283c1.354-0.529,2.856-0.795,4.506-0.795c2.146,0,3.988,0.453,5.523,1.359
			c1.535,0.904,2.686,2.074,3.449,3.511c0.765,1.435,1.147,2.897,1.147,4.386c0,1.381-0.396,2.275-1.188,2.686
			C158.073,23.525,156.96,23.729,155.524,23.729z M144.78,20.611h9.959c-0.135-1.878-0.64-3.282-1.519-4.215
			c-0.878-0.933-2.036-1.397-3.472-1.397c-1.368,0-2.491,0.472-3.369,1.418C145.501,17.362,144.968,18.761,144.78,20.611z"/>
	</g>
	<path fill="#E87518" d="M47.451,22.362c0,1.636-0.27,3.145-0.809,4.526c-0.54,1.382-1.321,2.567-2.346,3.56
		c-1.022,0.994-2.245,1.756-3.664,2.285c-1.422,0.529-3.02,0.795-4.796,0.795c-1.763,0-3.348-0.27-4.754-0.805
		c-1.407-0.537-2.625-1.305-3.656-2.305c-1.029-0.999-1.812-2.179-2.345-3.541c-0.531-1.361-0.799-2.867-0.799-4.516
		c0-1.664,0.27-3.186,0.81-4.568c0.541-1.381,1.315-2.562,2.325-3.541c1.008-0.979,2.229-1.733,3.665-2.263
		c1.436-0.53,3.018-0.794,4.754-0.794c1.761,0,3.36,0.268,4.796,0.804c1.435,0.537,2.663,1.302,3.686,2.294
		c1.023,0.992,1.802,2.173,2.336,3.541C47.187,19.203,47.451,20.712,47.451,22.362z"/>
</g>
</svg>
